<svg width="135" height="60" viewBox="0 0 135 60" fill="none" xmlns="http://www.w3.org/2000/svg">
<g filter="url(#filter0_d_143_1497)">
<path d="M68 51.0925L30.6874 34.606C27.7916 33.3265 28.7049 29 31.8707 29C32.2855 29 32.6956 29.0882 33.0737 29.2586L68 45L102.926 29.2586C103.304 29.0882 103.715 29 104.129 29C107.295 29 108.208 33.3265 105.313 34.606L68 51.0925Z" fill="white"/>
</g>
<g filter="url(#filter1_d_143_1497)">
<path d="M13.1053 7.16C13.372 7.10667 13.5186 7.28 13.5453 7.68C13.7053 8.98667 13.812 10.08 13.8653 10.96C13.852 11.16 13.772 11.2667 13.6253 11.28H12.8453C12.152 9.98667 11.192 9.33333 9.96531 9.32C8.87198 9.29333 8.32531 9.61333 8.32531 10.28C8.33865 11.0533 9.55198 11.88 11.9653 12.76C13.4453 13.3067 14.212 14.28 14.2653 15.68C14.2653 17.88 12.7253 18.98 9.64531 18.98C7.48531 18.9 5.88531 18.14 4.84531 16.7C4.79198 16.6067 4.79865 16.5133 4.86531 16.42L5.44531 15.82C5.55198 15.74 5.65865 15.76 5.76531 15.88C6.77865 16.68 7.65198 17.14 8.38531 17.26C9.10531 17.3933 9.75865 17.42 10.3453 17.34C10.9586 17.2333 11.2586 16.9133 11.2453 16.38C11.2453 15.8333 9.91198 14.9533 7.24531 13.74C5.68531 12.7667 5.00531 11.66 5.20531 10.42C5.43198 8.75333 6.62531 7.83333 8.78531 7.66C9.83865 7.59333 10.8386 7.77333 11.7853 8.2C12.5453 8.38667 12.9853 8.04 13.1053 7.16ZM22.1916 7.82C24.9516 7.82 26.5649 8.92667 27.0316 11.14C27.0849 11.5133 27.1116 11.82 27.1116 12.06C27.1249 12.3 27.0516 12.4333 26.8916 12.46H24.8516C24.7449 12.4067 24.6782 12.3133 24.6516 12.18C24.4516 10.4733 23.6316 9.60667 22.1916 9.58C20.5916 9.75333 19.7782 11.1067 19.7516 13.64C19.7516 15.5467 20.5316 16.7133 22.0916 17.14C23.6516 17.5533 24.9916 17.2067 26.1116 16.1C26.2049 16.0733 26.2916 16.08 26.3716 16.12C26.5582 16.2533 26.7382 16.44 26.9116 16.68C27.0049 16.7733 27.0249 16.88 26.9716 17C25.8249 18.48 24.2049 19.22 22.1116 19.22C19.9382 19.18 18.4182 18.56 17.5516 17.36C16.6982 16.1467 16.3182 14.7933 16.4116 13.3C16.7449 9.7 18.6716 7.87333 22.1916 7.82ZM35.7363 7.9C37.3363 7.87333 38.2096 8.96667 38.3563 11.18V11.48C38.3563 11.6267 38.2829 11.7133 38.1363 11.74H36.2763C36.1696 11.7267 36.1163 11.64 36.1163 11.48C36.0229 10.7467 35.7963 10.32 35.4363 10.2L35.1963 10.18C34.6229 10.18 33.9563 10.7467 33.1963 11.88C33.1029 12.0533 33.0563 12.2067 33.0563 12.34V15.58C33.0563 17.4333 32.2963 18.58 30.7763 19.02C30.6829 19.06 30.4363 19.0867 30.0363 19.1C29.9429 19.0733 29.8896 19.0067 29.8763 18.9V11.3C29.8763 10.42 29.4629 9.72667 28.6363 9.22C28.6496 8.98 28.7629 8.84 28.9763 8.8C31.1096 8.29333 32.3496 8.02 32.6963 7.98C32.8163 7.98 32.8629 8.05333 32.8363 8.2V10.58H32.8963C33.6829 8.78 34.6296 7.88667 35.7363 7.9ZM39.8291 13.42C39.8291 12.5667 39.9557 11.7867 40.2091 11.08C40.4757 10.3733 40.8557 9.76667 41.3491 9.26C41.8557 8.75333 42.4691 8.36 43.1891 8.08C43.9091 7.78667 44.7291 7.64 45.6491 7.64C46.5691 7.64 47.3891 7.78667 48.1091 8.08C48.8291 8.36 49.4357 8.75333 49.9291 9.26C50.4357 9.76667 50.8157 10.3733 51.0691 11.08C51.3357 11.7867 51.4691 12.5667 51.4691 13.42C51.4691 14.2733 51.3357 15.0533 51.0691 15.76C50.8157 16.4667 50.4357 17.0733 49.9291 17.58C49.4357 18.0867 48.8291 18.48 48.1091 18.76C47.3891 19.0533 46.5691 19.2 45.6491 19.2C44.7291 19.2 43.9091 19.0533 43.1891 18.76C42.4691 18.48 41.8557 18.0867 41.3491 17.58C40.8557 17.0733 40.4757 16.4667 40.2091 15.76C39.9557 15.0533 39.8291 14.2733 39.8291 13.42ZM43.2291 13.42C43.2291 14.6867 43.4424 15.68 43.8691 16.4C44.2957 17.1067 44.8891 17.46 45.6491 17.46C46.4091 17.46 47.0024 17.1067 47.4291 16.4C47.8557 15.68 48.0691 14.6867 48.0691 13.42C48.0691 12.1533 47.8557 11.1667 47.4291 10.46C47.0024 9.74 46.4091 9.38 45.6491 9.38C44.8891 9.38 44.2957 9.74 43.8691 10.46C43.4424 11.1667 43.2291 12.1533 43.2291 13.42ZM57.4628 2.92C57.6095 2.92 57.6895 3 57.7028 3.16V7.92V15.92C57.7295 16.64 57.8895 17.1 58.1828 17.3C58.4761 17.5 58.8361 17.58 59.2628 17.54C59.6361 17.5 59.9295 17.4733 60.1428 17.46C60.3161 17.4733 60.4028 17.5933 60.4028 17.82C60.4161 18.0333 60.3295 18.2067 60.1428 18.34C59.3161 19.1267 58.5028 19.52 57.7028 19.52H57.3228C55.4028 19.52 54.4428 18.3467 54.4428 16V5.92C54.4428 5.22667 54.0095 4.60667 53.1428 4.06V4C53.1295 3.81333 53.2295 3.69333 53.4428 3.64C55.7761 3.18667 57.1161 2.94667 57.4628 2.92ZM65.1972 2.92C65.3439 2.92 65.4239 3 65.4372 3.16V7.92V15.92C65.4639 16.64 65.6239 17.1 65.9172 17.3C66.2105 17.5 66.5705 17.58 66.9972 17.54C67.3705 17.5 67.6639 17.4733 67.8772 17.46C68.0505 17.4733 68.1372 17.5933 68.1372 17.82C68.1505 18.0333 68.0639 18.2067 67.8772 18.34C67.0505 19.1267 66.2372 19.52 65.4372 19.52H65.0572C63.1372 19.52 62.1772 18.3467 62.1772 16V5.92C62.1772 5.22667 61.7439 4.60667 60.8772 4.06V4C60.8639 3.81333 60.9639 3.69333 61.1772 3.64C63.5105 3.18667 64.8505 2.94667 65.1972 2.92ZM84.7789 2.5H84.9589C85.0922 2.52667 85.1722 2.6 85.1989 2.72V18.4C85.1989 18.8133 84.9856 19.02 84.5589 19.02H78.8789C77.0122 19.02 75.6722 17.9067 74.8589 15.68C74.7122 14.96 74.6389 14.3667 74.6389 13.9V12.88C74.6389 10.44 75.5922 8.78667 77.4989 7.92C78.0856 7.72 78.6789 7.62 79.2789 7.62C80.3722 7.62 81.2522 7.92667 81.9189 8.54V5.98C81.9189 5.03333 81.4789 4.28 80.5989 3.72V3.66C80.5989 3.40667 80.7322 3.26667 80.9989 3.24L84.7789 2.5ZM77.9589 13.52C77.9589 16.04 78.7122 17.3 80.2189 17.3H81.7589C81.8656 17.3 81.9189 17.2533 81.9189 17.16V10.24C81.5189 9.68 80.9256 9.4 80.1389 9.4H79.8989C78.6056 9.4 77.9589 10.7733 77.9589 13.52ZM87.9736 13.42C87.9736 12.5667 88.1003 11.7867 88.3536 11.08C88.6203 10.3733 89.0003 9.76667 89.4936 9.26C90.0003 8.75333 90.6136 8.36 91.3336 8.08C92.0536 7.78667 92.8736 7.64 93.7936 7.64C94.7136 7.64 95.5336 7.78667 96.2536 8.08C96.9736 8.36 97.5803 8.75333 98.0736 9.26C98.5803 9.76667 98.9603 10.3733 99.2136 11.08C99.4803 11.7867 99.6136 12.5667 99.6136 13.42C99.6136 14.2733 99.4803 15.0533 99.2136 15.76C98.9603 16.4667 98.5803 17.0733 98.0736 17.58C97.5803 18.0867 96.9736 18.48 96.2536 18.76C95.5336 19.0533 94.7136 19.2 93.7936 19.2C92.8736 19.2 92.0536 19.0533 91.3336 18.76C90.6136 18.48 90.0003 18.0867 89.4936 17.58C89.0003 17.0733 88.6203 16.4667 88.3536 15.76C88.1003 15.0533 87.9736 14.2733 87.9736 13.42ZM91.3736 13.42C91.3736 14.6867 91.5869 15.68 92.0136 16.4C92.4403 17.1067 93.0336 17.46 93.7936 17.46C94.5536 17.46 95.1469 17.1067 95.5736 16.4C96.0003 15.68 96.2136 14.6867 96.2136 13.42C96.2136 12.1533 96.0003 11.1667 95.5736 10.46C95.1469 9.74 94.5536 9.38 93.7936 9.38C93.0336 9.38 92.4403 9.74 92.0136 10.46C91.5869 11.1667 91.3736 12.1533 91.3736 13.42ZM100.355 7.98H105.535C105.895 7.98 106.075 8.14 106.075 8.46C105.382 8.58 105.015 8.94667 104.975 9.56L105.035 10.12L106.195 14.48H106.295H106.195L109.075 8.52H109.995C110.222 8.49333 110.395 8.60667 110.515 8.86L112.755 14.22H112.815L114.255 9.66V9.5C114.295 9.03333 113.995 8.66 113.355 8.38V8.3C113.435 8.08667 113.609 7.98 113.875 7.98H117.355C117.715 7.98 117.895 8.14 117.895 8.46C117.149 8.62 116.629 8.99333 116.335 9.58L113.175 18.52C113.135 18.72 112.982 18.8267 112.715 18.84H111.795C111.529 18.84 111.369 18.72 111.315 18.48L109.055 12.8H108.975L106.195 18.68C106.049 18.7867 105.909 18.84 105.775 18.84H105.095C104.749 18.8667 104.529 18.7533 104.435 18.5L101.615 10.04C101.162 9.04 100.589 8.53333 99.8955 8.52L99.8355 8.38V8.3C99.9155 8.08667 100.089 7.98 100.355 7.98ZM126.481 7.72C128.841 7.85333 130.187 8.84 130.521 10.68C130.574 11.2133 130.601 11.6267 130.601 11.92L130.621 16.98C130.674 18.0067 130.294 18.6267 129.481 18.84C128.681 19.0667 128.021 19.14 127.501 19.06C127.394 19.06 127.341 19.0133 127.341 18.92V11.84C127.341 10.3467 126.774 9.6 125.641 9.6C124.881 9.6 124.261 9.90667 123.781 10.52V17.76C123.821 18.6133 123.521 19.0533 122.881 19.08C121.641 19.0667 120.927 19.06 120.741 19.06C120.621 19.0467 120.547 18.9733 120.521 18.84V10.98C120.521 10.22 120.074 9.57333 119.181 9.04V8.96C119.194 8.8 119.314 8.69333 119.541 8.64C121.541 8.2 122.821 7.94667 123.381 7.88C123.514 7.88 123.594 7.94667 123.621 8.08C123.621 8.36 123.621 8.60667 123.621 8.82C124.394 8.08667 125.347 7.72 126.481 7.72Z" fill="white"/>
</g>
<defs>
<filter id="filter0_d_143_1497" x="24.939" y="29" width="86.1221" height="30.0925" filterUnits="userSpaceOnUse" color-interpolation-filters="sRGB">
<feFlood flood-opacity="0" result="BackgroundImageFix"/>
<feColorMatrix in="SourceAlpha" type="matrix" values="0 0 0 0 0 0 0 0 0 0 0 0 0 0 0 0 0 0 127 0" result="hardAlpha"/>
<feOffset dy="4"/>
<feGaussianBlur stdDeviation="2"/>
<feComposite in2="hardAlpha" operator="out"/>
<feColorMatrix type="matrix" values="0 0 0 0 0 0 0 0 0 0 0 0 0 0 0 0 0 0 0.25 0"/>
<feBlend mode="normal" in2="BackgroundImageFix" result="effect1_dropShadow_143_1497"/>
<feBlend mode="normal" in="SourceGraphic" in2="effect1_dropShadow_143_1497" result="shape"/>
</filter>
<filter id="filter1_d_143_1497" x="0.765137" y="2.5" width="133.936" height="25.02" filterUnits="userSpaceOnUse" color-interpolation-filters="sRGB">
<feFlood flood-opacity="0" result="BackgroundImageFix"/>
<feColorMatrix in="SourceAlpha" type="matrix" values="0 0 0 0 0 0 0 0 0 0 0 0 0 0 0 0 0 0 127 0" result="hardAlpha"/>
<feOffset dy="4"/>
<feGaussianBlur stdDeviation="2"/>
<feComposite in2="hardAlpha" operator="out"/>
<feColorMatrix type="matrix" values="0 0 0 0 0 0 0 0 0 0 0 0 0 0 0 0 0 0 0.25 0"/>
<feBlend mode="normal" in2="BackgroundImageFix" result="effect1_dropShadow_143_1497"/>
<feBlend mode="normal" in="SourceGraphic" in2="effect1_dropShadow_143_1497" result="shape"/>
</filter>
</defs>
</svg>
