<svg width="500" height="202" viewBox="0 0 500 202" fill="none" xmlns="http://www.w3.org/2000/svg">
<path fill-rule="evenodd" clip-rule="evenodd" d="M233.158 0.264394C232.984 0.407583 232.439 1.88255 231.947 3.54233C229.277 12.5457 226.713 17.6724 223.673 20.0916C221.546 21.7834 217.306 23.7119 211.519 25.6191C208.427 26.6381 206.048 27.5387 205.734 27.8086L205.201 28.2673L205.718 28.6969C206.002 28.9331 208.547 29.8869 211.374 30.8164C220.103 33.6872 223.995 35.9175 226.365 39.4079C228.189 42.0941 230.096 46.7611 232.052 53.3276C232.863 56.0479 233.041 56.4074 233.576 56.4024C234.26 56.3959 234.467 55.9999 235.377 52.9552C236.542 49.0561 238.563 43.3562 239.024 42.6694C239.216 42.3832 239.778 41.4231 240.272 40.5359C242.813 35.9705 246.122 33.9977 257.289 30.3887C260.544 29.3366 261.372 28.992 261.646 28.5732C261.969 28.0798 261.962 28.0392 261.478 27.6727C261.199 27.4617 259.894 26.9505 258.578 26.537C249.57 23.7061 245.576 21.8796 242.905 19.3694C240.13 16.7623 237.918 12.1074 235.37 3.51569C234.357 0.0993526 233.999 -0.427197 233.158 0.264394ZM181.676 33.7253C164.37 38.2345 152.192 42.6361 143.798 47.4163C140.184 49.4744 134.88 53.237 132.739 55.2608C131.392 56.5347 131.331 57.0038 132.266 58.8755C133.8 61.9449 137.825 64.6717 143.929 66.7765C148.313 68.288 153.591 69.1064 156.935 68.7932L158.549 68.6419L158.042 68.2508C157.763 68.0358 156.832 67.569 155.973 67.2135C151.928 65.5379 151.585 65.2911 151.204 63.7764C151.068 63.2386 150.852 62.8573 150.681 62.8573C150.521 62.8573 149.296 63.1757 147.958 63.5647C146.62 63.9539 145.605 64.1953 145.703 64.1012C146.012 63.8024 150.96 61.3984 152.76 60.6728C161.211 57.2657 173 54.8113 188.217 53.2909C191.699 52.9432 195.679 52.4691 197.062 52.2378C199.815 51.777 203.789 50.8703 204.215 50.6057C204.427 50.4734 204.378 50.1456 203.976 49.0394C203.348 47.3084 203.047 46.9705 201.458 46.2125C198.938 45.0093 196.975 42.8022 193.809 37.6089C191.843 34.3842 191.263 33.6866 190.027 33.0554C188.392 32.2204 187.034 32.3292 181.676 33.7253ZM277.909 32.7586C276.231 33.3584 275.394 34.2968 273.25 37.9866C272.585 39.1313 271.636 40.6387 271.141 41.3368C269.891 43.0994 267.199 45.6166 265.958 46.1823C265.39 46.4412 264.785 46.7259 264.613 46.8148C264.175 47.0416 263.181 49.1066 263.111 49.9356C263.055 50.5882 263.104 50.6417 263.989 50.9123C266.614 51.7148 272.179 52.5831 279.182 53.2828C295.681 54.9314 307.626 57.5639 316.575 61.5241C318.944 62.5726 321.847 64.0509 321.847 64.209C321.847 64.2625 318.559 63.3073 316.934 62.7817C316.547 62.6569 316.44 62.7907 316.033 63.906C315.494 65.3841 315.234 65.5795 312.17 66.8116C311.025 67.272 309.808 67.872 309.466 68.1449L308.845 68.641L310.299 68.7969C313.194 69.107 319.025 68.21 323.394 66.7821C329.023 64.9427 334.14 61.4119 335.113 58.6948C335.964 56.322 335.987 56.4082 334.066 54.7792C328.974 50.4609 322.837 46.6489 316.284 43.7337C309.203 40.5832 297.284 36.6988 285.548 33.7162C280.535 32.442 279.247 32.2805 277.909 32.7586ZM497.398 42.9847C496.597 43.1331 494.724 43.5358 493.236 43.8792C491.748 44.2226 482.429 46.3007 472.528 48.4972C462.626 50.6938 454.309 52.6283 454.044 52.7964C453.118 53.3848 453.557 53.723 456.467 54.6635C457.993 55.1565 459.547 55.7484 459.919 55.9786C460.881 56.573 462.622 58.4674 463.14 59.4842C464.25 61.6589 464.231 61.2627 464.206 81.6851C464.193 92.0977 464.148 100.652 464.105 100.694C464.063 100.737 462.592 99.5639 460.838 98.0877C459.083 96.6115 453.854 92.2215 449.218 88.3321C444.582 84.4427 436.387 77.5678 431.007 73.0543C425.627 68.5407 420.196 63.9795 418.937 62.9183C417.625 61.8125 416.514 61.0275 416.335 61.0795C416.163 61.1293 411.387 61.8369 405.72 62.6519C400.054 63.4671 395.208 64.2195 394.95 64.3237C394.64 64.4492 394.482 64.689 394.482 65.0328C394.482 65.7077 395.17 66.0622 397.539 66.6066C401.138 67.4339 403.033 68.8158 404.333 71.561L404.992 72.9512V101.048C404.992 127.752 404.973 129.206 404.609 130.387C403.474 134.066 401.221 136.51 397.093 138.542C394.501 139.817 393.953 140.398 394.875 140.891C395.509 141.23 440.379 141.084 440.722 140.741C441.158 140.306 440.695 139.827 439.01 138.971C434.826 136.845 432.853 135.143 431.589 132.569C430.212 129.767 430.273 130.95 430.278 107.099C430.28 95.2031 430.316 85.4363 430.357 85.3953C430.398 85.3541 431.919 86.5689 433.737 88.0947C435.555 89.6204 439.995 93.3464 443.603 96.3746C447.212 99.4026 453.314 104.533 457.164 107.776L464.165 113.671L464.301 115.892C464.699 122.401 465.81 127.009 468.15 131.852C470.033 135.751 471.581 137.898 474.909 141.231C478.158 144.483 480.761 146.372 484.566 148.238C487.005 149.433 488.471 149.725 488.978 149.114C489.242 148.796 489.295 142.655 489.386 102.525L489.49 56.3014L490.074 54.6364C491.284 51.1891 493.712 48.1091 497.124 45.6934C499.335 44.1281 500 43.5165 500 43.0467C500 42.5978 499.543 42.5868 497.398 42.9847ZM228.288 61.2013C217.6 62.4167 209.094 69.461 207.014 78.8186C206.516 81.0616 206.526 85.8392 207.035 88.2483C208.106 93.3158 210.351 97.6721 213.492 100.773C215.895 103.147 216.587 103.652 229.857 112.721C243.139 121.799 244.618 122.997 245.994 125.786C246.72 127.257 246.81 127.619 246.886 129.362C247.141 135.186 244.1 139.602 238.702 141.247C236.88 141.802 232.557 141.74 229.753 141.117C226.03 140.291 222.059 138.506 219.213 136.379C217.29 134.943 214.412 132.116 212.801 130.082C210.815 127.573 209.511 125.571 207.603 122.096C205.778 118.773 204.913 117.385 204.665 117.385C203.897 117.385 203.648 129.05 204.323 133.37C205.191 138.917 206.578 142.55 209.021 145.676L209.416 146.183L210.635 145.638C213.582 144.32 216.62 144.354 221.532 145.76C227.436 147.45 232.553 148.008 238.361 147.597C246.964 146.987 252.403 144.739 256.913 139.927C260.542 136.055 262.519 130.891 262.954 124.149C263.383 117.481 261.895 111.608 258.602 106.983C257.079 104.845 253.948 101.726 251.32 99.7302C248.81 97.8244 243.347 94.022 234.227 87.8343C224.18 81.0175 223.345 80.3082 221.966 77.4259C221.271 75.9734 221.22 75.7278 221.22 73.8878C221.22 72.0969 221.282 71.7787 221.883 70.511C223.033 68.0828 225.054 66.5754 228.126 65.8549C229.224 65.5974 230.251 65.5452 232.666 65.6243C236.315 65.7435 237.693 66.0503 240.399 67.3459C244.021 69.0806 246.249 71.3069 248.855 75.7975C249.74 77.3227 250.587 78.7291 250.737 78.9231C250.887 79.1169 252.187 80.0692 253.626 81.0391C256.152 82.742 258.765 84.1487 260.607 84.7968L261.491 85.1079L261.488 84.2327C261.482 82.4866 258.277 74.1694 255.76 69.369C254.702 67.3498 252.759 64.0478 251.894 62.7976C251.824 62.6958 251.331 62.7611 250.795 62.9435C249.249 63.4681 246.65 63.3651 243.177 62.6413C236.412 61.2316 231.878 60.7931 228.288 61.2013ZM67.1048 70.8163C67.1048 70.8773 68.0178 71.674 69.134 72.587C72.4896 75.332 73.6642 76.9037 74.4686 79.7261C75.2326 82.4067 75.2884 83.471 75.4116 97.6877L75.5338 111.81L77.1987 110.313C80.6808 107.182 84.9563 104.249 89.5311 101.853L91.8624 100.632L91.8714 92.2026C91.8797 84.4384 91.9111 83.7064 92.2679 82.9205C92.713 81.9407 93.49 81.3186 94.681 80.9887C95.7221 80.7005 105.782 80.6828 108.456 80.9646C114.525 81.6039 119.611 86.1491 122.465 93.485C122.968 94.7787 123.055 94.889 123.317 94.5719C123.539 94.305 123.607 93.5292 123.597 91.3897C123.578 87.155 122.923 83.4983 121.183 77.9216L120.331 75.1917L108.651 75.0731C90.943 74.8932 85.4548 74.3679 73.2592 71.685C70.1138 70.9932 67.1048 70.5684 67.1048 70.8163ZM128.602 75.5628C128.414 76.1547 128.748 76.4818 130.454 77.3774C133.163 78.7997 134.357 80.5252 134.75 83.5869C135.029 85.7616 135 130.396 134.718 132.682C134.347 135.689 133.103 137.412 130.216 138.918C128.752 139.682 128.605 139.815 128.605 140.383V141.007H143.104C151.079 141.007 157.679 140.932 157.771 140.839C158.149 140.462 157.264 139.562 155.765 138.799C153.987 137.895 152.921 136.828 152.076 135.107L151.499 133.931L151.394 114.316C151.337 103.527 151.349 94.7001 151.422 94.7001C151.494 94.7001 153.981 97.814 156.949 101.62C169.601 117.844 176.736 126.975 178.132 128.728C178.952 129.758 181.396 132.895 183.563 135.697C188.055 141.506 190.703 144.312 193.083 145.784C194.699 146.783 197.39 147.829 198.919 148.051C199.703 148.166 199.716 148.157 199.578 147.605C199.501 147.296 198.982 146.294 198.424 145.378C197.166 143.313 195.701 138.86 195.164 135.473C194.817 133.278 194.788 131.189 194.788 107.812V82.5249L195.268 81.3382C195.957 79.6318 197.241 78.3094 199.139 77.3491C200.722 76.5486 201.272 75.9986 201.054 75.4325C200.958 75.1807 198.789 75.1365 186.482 75.1365C176.549 75.1365 171.981 75.2054 171.887 75.3565C171.542 75.9157 172.019 76.5541 173.193 77.1037C175.724 78.2885 176.782 79.3841 177.679 81.748C178.125 82.9228 178.133 83.1528 178.194 96.6772C178.229 104.232 178.23 111.665 178.198 113.195L178.138 115.976L176.768 114.235C176.014 113.278 169.512 104.955 162.318 95.7407C155.125 86.526 148.552 78.1204 147.712 77.0617L146.184 75.1365H137.46C128.852 75.1365 128.735 75.1422 128.602 75.5628ZM266.018 75.2799C265.818 75.3324 265.654 75.5411 265.654 75.7438C265.654 76.241 266.105 76.6001 267.904 77.5335C269.438 78.3298 270.443 79.3142 271.158 80.7217C272.088 82.5522 272.098 82.8616 272.106 108.131C272.111 124.241 272.04 132.615 271.888 133.73C271.763 134.642 271.337 136.366 270.939 137.562C270.002 140.384 268.553 142.566 265.578 145.637C264.326 146.929 263.35 148.034 263.408 148.092C263.583 148.268 267.304 147.787 269.088 147.359C271.046 146.89 272.91 146.252 278.141 144.266C283.794 142.119 286.457 141.511 291.906 141.125C293.409 141.018 294.734 140.836 294.85 140.72C295.231 140.339 294.394 139.432 293.161 138.889C290.92 137.903 289.77 136.636 288.978 134.285C288.573 133.082 288.547 132.543 288.547 125.054C288.547 117.375 288.563 117.069 288.989 116.189C289.255 115.639 289.765 115.055 290.275 114.718L291.12 114.16H301.749C312.267 114.16 312.386 114.164 313.224 114.613C314.264 115.169 314.467 115.407 314.895 116.571C315.187 117.364 315.229 118.528 315.198 125.086C315.178 129.264 315.069 133.1 314.956 133.609C314.438 135.941 312.828 137.916 310.706 138.824C309.512 139.334 308.735 139.992 308.735 140.491C308.735 140.808 309.513 140.851 317.543 140.986C328.212 141.165 338.081 140.968 338.081 140.576C338.081 139.924 337.714 139.58 336.226 138.832C333.716 137.569 332.443 135.937 331.864 133.239C331.552 131.785 331.534 85.2315 331.844 83.2533C332.131 81.426 333.111 79.4653 334.16 78.6215C334.622 78.25 335.616 77.6184 336.369 77.2178C337.83 76.4406 338.226 76.0227 338.016 75.477C337.897 75.1663 336.62 75.1365 323.408 75.1365C311.085 75.1365 308.913 75.1807 308.817 75.4325C308.595 76.0115 309.19 76.6082 310.797 77.4159C312.711 78.3785 313.904 79.6103 314.608 81.3496C315.077 82.5095 315.083 82.6402 315.083 91.3853V100.245L314.511 101.109C313.405 102.781 313.948 102.713 301.852 102.713H291.119L290.254 102.141C288.571 101.027 288.651 101.559 288.651 91.4833C288.651 82.6133 288.656 82.5132 289.131 81.3382C289.832 79.6018 291.117 78.2846 293.011 77.3609C294.553 76.6086 295.088 76.0354 294.846 75.3967C294.767 75.1917 291.736 75.1417 280.564 75.1607C272.764 75.174 266.218 75.2277 266.018 75.2799ZM349.88 75.2914C348.314 75.3601 348.261 75.379 348.399 75.8219C348.593 76.4431 348.612 76.4521 351.858 77.5062C355.856 78.8043 357.548 80.0894 358.456 82.5182L358.902 83.7108L358.889 132.891L358.352 133.99C357.211 136.326 354.902 137.917 351.237 138.893C349.088 139.466 348.279 139.894 348.279 140.46C348.279 140.82 348.8 140.845 358.841 140.952C372.835 141.1 386.614 141.044 386.937 140.837C387.753 140.315 386.678 139.469 384.521 138.935C381.302 138.139 379.94 137.387 378.036 135.356C377.223 134.489 376.858 133.92 376.787 133.407C376.732 133.008 376.687 121.491 376.687 107.812V82.9411L377.305 81.8266C378.48 79.7048 380.737 78.2224 384.193 77.3025C386.407 76.7133 387.099 76.3684 387.253 75.7771C387.338 75.4556 387.187 75.3765 386.287 75.2683C385.21 75.139 352.892 75.1594 349.88 75.2914ZM109.77 98.5874C97.9113 99.7999 84.565 105.701 75.9042 113.561C72.9576 116.235 69.4903 120.512 67.0682 124.462C65.9245 126.326 64.3349 129.462 64.4664 129.593C64.518 129.645 65.203 129.273 65.9886 128.767C68.6468 127.054 74.849 123.629 75.2915 123.629C75.5019 123.629 75.4484 127.29 75.2141 128.936C74.4832 134.069 72.7212 136.88 66.8967 142.204L64.9195 144.012L65.8561 144.017C66.3712 144.02 67.9165 143.786 69.2901 143.498C75.0613 142.288 76.482 142.042 80.1125 141.621C84.6358 141.096 94.3824 140.867 109.146 140.939L123.194 141.007L123.986 138.718C125.104 135.485 126.163 131.208 126.524 128.473C126.913 125.523 126.966 121.227 126.619 120.809C126.232 120.342 126.057 120.442 125.782 121.288C125.354 122.609 123.806 125.531 122.72 127.068C120.004 130.916 117.135 133.099 112.996 134.47C111.588 134.936 111.257 134.955 103.182 135.029C91.0734 135.139 91.8714 135.877 91.8714 124.572V117.242L94.7499 116.59C102.111 114.922 110.323 113.97 119.994 113.663C122.842 113.572 125.229 113.443 125.297 113.375C125.528 113.144 124.252 111.1 123.448 110.411C123.007 110.035 121.622 109.283 120.368 108.741C116.736 107.172 116.086 106.099 116.275 101.988C116.359 100.177 116.321 99.448 116.138 99.2954C115.366 98.6546 112.37 98.3214 109.77 98.5874ZM347.342 98.6265C346.884 98.7131 346.201 98.9466 345.824 99.1456L345.138 99.5071L345.304 100.798C345.542 102.663 345.438 104.646 345.047 105.669C344.673 106.65 342.627 108.644 341.996 108.644C341.31 108.644 339.561 109.424 338.5 110.202C337.473 110.957 336.416 112.412 336.416 113.07C336.416 113.495 337.321 113.588 342.867 113.733C346.9 113.838 352.879 114.274 355.657 114.667C356.349 114.765 356.987 114.778 357.074 114.697C357.162 114.616 357.208 111.137 357.178 106.966L357.124 99.3828L355.043 99.0255C352.624 98.6105 348.545 98.399 347.342 98.6265ZM378.248 114.008V119.996L380.694 121.008C384.108 122.422 391.154 126.006 394.378 127.97C395.866 128.876 397.115 129.534 397.153 129.432C397.191 129.33 396.693 128.245 396.045 127.022C392.261 119.873 386.546 113.466 380.032 109.071C379.176 108.493 378.424 108.02 378.362 108.02C378.299 108.02 378.248 110.714 378.248 114.008ZM73.1404 162.627C73.1404 163.067 73.5418 163.31 75.1217 163.829C76.9082 164.415 78.5857 165.907 78.9466 167.231C79.0941 167.772 79.174 171.205 79.1747 177.027L79.1759 185.991L78.6036 187.121C77.9336 188.444 76.6316 189.424 74.8624 189.939C74.2357 190.121 73.5216 190.471 73.2756 190.717L72.8282 191.165L83.6412 191.219C92.5114 191.263 94.505 191.222 94.736 190.991C94.973 190.754 94.7429 190.605 93.2885 190.054C91.1394 189.239 90.3962 188.789 89.739 187.905C88.7764 186.609 88.7493 186.304 88.7516 176.721L88.7537 167.647L89.2495 166.582C89.842 165.31 90.704 164.607 92.508 163.927C93.2452 163.649 94.1143 163.3 94.439 163.151C94.9859 162.901 95.0022 162.861 94.6594 162.61C94.0958 162.198 73.1404 162.214 73.1404 162.627ZM118.303 162.737C118.303 163.019 118.678 163.311 119.604 163.749C121.128 164.47 122.349 165.628 122.703 166.686C123.071 167.791 123.089 185.673 122.722 186.705C122.321 187.834 120.929 189.113 119.576 189.596C118.014 190.154 116.997 190.691 116.894 191.012C116.827 191.221 118.108 191.264 123.124 191.22C127.849 191.179 129.438 191.102 129.438 190.916C129.438 190.779 128.925 190.31 128.299 189.872C126.924 188.911 126.317 188.059 126.019 186.672C125.745 185.393 125.707 168.821 125.979 169.114C126.08 169.223 126.607 170.342 127.15 171.601C127.693 172.861 128.266 174.076 128.423 174.301C128.58 174.527 128.709 174.882 128.709 175.089C128.709 175.297 128.843 175.674 129.007 175.927C129.244 176.294 133.815 186.466 135.6 190.6C135.983 191.489 135.987 191.491 136.509 191.149C137.55 190.467 138.3 189.021 142.575 179.458L146.92 169.739L147.082 176.29C147.282 184.358 147.182 186.411 146.52 187.857C146.044 188.896 145.826 189.117 144.32 190.087C143.92 190.345 143.562 190.717 143.524 190.914C143.459 191.25 144.062 191.27 153.096 191.219C163.911 191.158 164.141 191.121 160.988 189.924C159.009 189.172 157.822 188.284 157.219 187.101C156.824 186.327 156.806 185.861 156.81 176.761C156.814 167.929 156.843 167.17 157.2 166.398C157.717 165.283 158.645 164.446 160.2 163.693C160.937 163.335 161.517 162.912 161.556 162.704C161.619 162.363 161.164 162.34 154.364 162.34H147.104L146.908 162.843C146.324 164.34 140.255 177.74 140.162 177.737C140.101 177.735 139.504 176.495 138.834 174.98C138.164 173.465 136.619 170.002 135.401 167.283L133.186 162.34H125.744C118.564 162.34 118.303 162.354 118.303 162.737ZM186.515 162.476C185.868 162.658 186.12 162.916 187.739 163.727C189.498 164.608 190.53 165.638 190.904 166.889C191.072 167.45 191.144 170.512 191.141 176.933C191.137 185.456 191.107 186.235 190.753 187.014C190.218 188.192 188.923 189.224 187.256 189.8C185.873 190.279 185.11 190.738 185.11 191.093C185.11 191.19 189.98 191.269 195.933 191.269C205.33 191.269 206.755 191.229 206.755 190.962C206.755 190.605 205.967 190.16 204.766 189.837C203.47 189.488 202.026 188.424 201.4 187.355C200.872 186.455 200.835 186.218 200.755 183.215L200.669 180.03H202.233C207.999 180.03 211.998 178.763 214.675 176.087C216.838 173.925 217.476 171.441 216.523 168.896C215.839 167.073 213.883 165.172 211.542 164.056C208.208 162.468 208.303 162.479 196.973 162.423C191.422 162.396 186.716 162.42 186.515 162.476ZM203.257 165.066C207.014 166.983 208.149 171.601 205.727 175.122C204.833 176.42 202.555 177.741 201.209 177.741H200.72V164.368L201.571 164.504C202.039 164.579 202.798 164.832 203.257 165.066Z" fill="white"/>
<path d="M45.454 87.832V96.4275C45.454 114.395 45.8425 127.167 46.6195 134.743C40.1122 147.855 28.1174 158.247 10.6351 165.92C9.6475 164.191 10.159 162.001 11.7618 160.821C19.4782 155.138 25.0272 149.262 28.4087 143.193C32.2937 136.491 34.2362 127.799 34.2362 117.115V87.832C34.2362 73.1663 33.7991 61.4629 32.925 52.7217C21.4644 52.7217 14.1315 54.2757 10.9264 57.3837C10.2466 58.7434 9.90664 60.8801 9.90664 63.7938C9.90664 66.7076 10.3923 68.6986 11.3635 69.767L11.2178 70.7868C8.78971 72.2436 6.36162 74.2832 3.93352 76.9056C2.76803 76.8084 1.84535 76.3228 1.16549 75.4487C0.388496 74.5746 0 73.5548 0 72.3893C0 67.6302 2.86516 61.9485 8.59547 55.3441C14.3258 48.7396 19.6676 44.5633 24.6209 42.8151C25.3979 42.8151 28.8944 43.155 35.1103 43.8349C41.3262 44.4176 46.1824 44.709 49.6789 44.709C53.1753 44.709 58.3923 45.0463 61.5003 44.4636L60.1683 47.477C56.3804 48.9339 52.0584 50.245 47.2022 51.4105C46.0367 61.8999 45.454 74.0404 45.454 87.832Z" fill="white"/>
<path d="M48.3677 87.832V96.4275C48.3677 114.395 48.7562 127.167 49.5332 134.743C43.0259 147.855 31.0311 158.247 13.5488 165.92H10.6351C19.8618 159.607 27.5346 149.991 31.3225 143.193C35.2074 136.491 37.1499 127.799 37.1499 117.115V87.832C37.1499 73.1663 36.7128 61.4629 35.8387 52.7217C24.3781 52.7217 17.0452 54.2757 13.8402 57.3837C13.1603 58.7434 12.8204 60.8801 12.8204 63.7938C12.8204 66.7076 13.306 68.6986 14.2772 69.767L14.1315 70.7868C11.7034 72.2436 9.27533 74.2832 6.84724 76.9056C5.68175 76.8084 5.30713 76.9056 3.93352 76.9056C3.15653 76.0315 2.91372 73.5548 2.91372 72.3893C2.91372 67.6302 5.77887 61.9485 11.5092 55.3441C17.2395 48.7396 22.1026 44.7448 27.0559 42.9966C27.8329 42.9966 31.8081 43.155 38.024 43.8349C44.2399 44.4176 49.0961 44.709 52.5926 44.709C56.0891 44.709 61.4101 44.6769 64.518 44.0942L63.082 47.477C59.2942 48.9339 54.9721 50.245 50.1159 51.4105C48.9505 61.8999 48.3677 74.0404 48.3677 87.832Z" fill="white"/>
<path d="M51.9058 87.832V96.4275C51.9058 114.395 52.2943 127.167 53.0713 134.743C46.9711 147.034 36.0487 156.936 20.304 164.447C18.1981 165.452 15.8821 165.92 13.5488 165.92C22.7756 159.607 31.0727 149.991 34.8605 143.193C38.7455 136.491 40.688 127.799 40.688 117.115V87.832C40.688 73.1663 40.2509 61.4629 39.3768 52.7217C27.9162 52.7217 20.5833 54.2757 17.3782 57.3837C16.6984 58.7434 16.3584 60.8801 16.3584 63.7938C16.3584 63.9732 16.3603 64.149 16.364 64.3213C16.4274 67.2927 15.5413 71.3729 13.4942 73.5276C13.2544 73.78 13.0148 74.0363 12.7756 74.2946C11.2578 75.9342 9.08148 76.9056 6.84724 76.9056C6.07025 76.0315 6.4518 73.5548 6.4518 72.3893C6.4518 67.6302 9.31696 61.9485 15.0473 55.3441C20.7776 48.7396 22.1026 44.7448 27.0559 42.9966C27.8329 42.9966 35.3462 43.155 41.5621 43.8349C47.778 44.4176 52.6342 44.709 56.1307 44.709C59.6272 44.709 62.9294 44.4176 66.0373 43.8349L66.6201 47.477C62.8322 48.9339 58.5102 50.245 53.654 51.4105C52.4885 61.8999 51.9058 74.0404 51.9058 87.832Z" fill="white"/>
<path d="M238.529 190.957C239.251 190.957 239.861 190.707 240.361 190.208C240.888 189.68 241.166 189.056 241.193 188.334V165.274C241.166 164.386 240.791 163.679 240.07 163.152C239.626 162.819 239.112 162.652 238.529 162.652H237.988V162.236H256.428C257.621 162.236 258.676 162.139 259.591 161.944C260.535 161.75 261.132 161.598 261.381 161.487V170.061H260.965V169.728C260.965 167.508 260.16 165.954 258.551 165.066C257.774 164.622 256.844 164.386 255.762 164.359H249.726V175.972H254.263C255.595 175.944 256.678 175.514 257.51 174.682C258.343 173.821 258.759 172.725 258.759 171.393V171.227H259.175V182.798H258.759V182.59C258.759 181.286 258.343 180.218 257.51 179.385C256.678 178.525 255.609 178.081 254.305 178.053H249.726V189.25H254.846C256.872 189.25 258.662 188.584 260.216 187.252C261.77 185.92 262.866 184.075 263.504 181.716H263.92L262.339 191.373H237.988V190.957H238.529Z" fill="white"/>
<path d="M287.064 190.957C287.786 190.957 288.396 190.707 288.896 190.208C289.423 189.68 289.7 189.056 289.728 188.334V165.233C289.7 164.511 289.423 163.901 288.896 163.401C288.396 162.902 287.786 162.652 287.064 162.652H286.523V162.236H301.466V162.652H300.925C300.204 162.652 299.579 162.902 299.052 163.401C298.553 163.901 298.289 164.511 298.261 165.233V188.334C298.261 189.056 298.525 189.68 299.052 190.208C299.579 190.707 300.204 190.957 300.925 190.957H301.466V191.373H286.523V190.957H287.064ZM320.572 191.373H316.077C310.971 191.373 307.405 189.986 305.379 187.211C304.547 186.101 303.367 184.325 301.841 181.883C300.342 179.413 299.593 178.164 299.593 178.136L309.542 164.567C309.736 164.289 309.833 164.04 309.833 163.818C309.833 163.596 309.791 163.401 309.708 163.235C309.514 162.819 309.125 162.61 308.543 162.61H308.126V162.236H318.158V162.61H317.991C316.132 162.61 314.606 163.29 313.413 164.65L306.378 173.142L316.118 187.793C317.478 189.847 318.963 190.901 320.572 190.957V191.373Z" fill="white"/>
<path d="M359.378 192.996C362.597 193.857 365.261 194.55 367.37 195.078C369.507 195.633 371.727 196.132 374.03 196.576C376.333 197.02 378.442 197.242 380.357 197.242C382.272 197.242 383.992 196.951 385.518 196.368L385.851 196.659C384.436 198.38 382.854 199.67 381.106 200.53C379.275 201.446 377.457 201.904 375.653 201.904C373.877 201.904 372.018 201.682 370.076 201.238C368.133 200.822 366.218 200.197 364.331 199.365C362.444 198.56 360.46 197.7 358.379 196.784C356.298 195.896 354.355 195.036 352.552 194.204C348.361 192.317 344.754 191.373 341.729 191.373V190.998L355.549 164.275H348.056C345.809 164.303 344.241 165.15 343.353 166.815C342.936 167.619 342.728 168.577 342.728 169.687V170.02H342.312V161.445C342.728 161.612 343.45 161.778 344.477 161.944C345.531 162.111 346.266 162.194 346.683 162.194C347.127 162.194 347.349 162.194 347.349 162.194H361.709C362.542 162.194 363.416 162.139 364.331 162.028C365.275 161.917 365.872 161.792 366.121 161.653V162.028L351.22 190.998C353.467 191.498 356.187 192.164 359.378 192.996Z" fill="white"/>
</svg>
